<svg xmlns="http://www.w3.org/2000/svg" xmlns:xlink="http://www.w3.org/1999/xlink" fill="none" version="1.1" width="24" height="24" viewBox="0 0 24 24"><g style="mix-blend-mode:passthrough"><g style="mix-blend-mode:passthrough"><path d="M6.13606,4.221851839706421C6.52658,4.612376839706421,6.52658,5.245544839706421,6.13605,5.636064839706421C4.4584600000000005,7.313644839706421,3.5,9.57968483970642,3.5,11.999994839706421C3.5,14.420354839706421,4.4584600000000005,16.68635483970642,6.13605,18.363954839706423C6.52658,18.754554839706422,6.52658,19.38765483970642,6.13606,19.77815483970642C5.74554,20.16875483970642,5.11237,20.16875483970642,4.72185,19.77825483970642C2.6728899999999998,17.72925483970642,1.5,14.956254839706421,1.5,11.999994839706421C1.5,9.043794839706422,2.6729000000000003,6.270774839706421,4.72185,4.221844839706421C5.11237,3.831322539706421,5.74554,3.831325539706421,6.13606,4.221851839706421C6.13606,4.221851839706421,6.13606,4.221851839706421,6.13606,4.221851839706421ZM20.2782,4.221846839706421C22.3271,6.270784839706421,23.5,9.043804839706421,23.5,11.999994839706421C23.5,14.956254839706421,22.3271,17.72925483970642,20.2782,19.77825483970642C19.8876,20.16875483970642,19.2545,20.16875483970642,18.8639,19.77825483970642C18.4734,19.38765483970642,18.4734,18.754554839706422,18.8639,18.363954839706423C20.5415,16.68635483970642,21.5,14.420354839706421,21.5,11.999994839706421C21.5,9.57969483970642,20.5415,7.313644839706421,18.8639,5.636064839706421C18.4734,5.245534839706421,18.4734,4.612373839706421,18.8639,4.221848839706421C19.2545,3.831324239706421,19.8876,3.831323339706421,20.2782,4.221846839706421C20.2782,4.221846839706421,20.2782,4.221846839706421,20.2782,4.221846839706421ZM18.1568,6.34319483970642C19.6468,7.83315483970642,20.5,9.85031483970642,20.5,12.00004483970642C20.5,14.149754839706421,19.6468,16.16695483970642,18.1568,17.656954839706422C17.7663,18.04745483970642,17.1331,18.04745483970642,16.7426,17.656954839706422C16.3521,17.266354839706423,16.3521,16.63325483970642,16.7426,16.24265483970642C17.8612,15.124054839706421,18.5,13.613904839706422,18.5,12.00004483970642C18.5,10.38619483970642,17.8612,8.876014839706421,16.7426,7.757404839706421C16.3521,7.366884839706421,16.3521,6.733714839706421,16.7426,6.34319483970642C17.1331,5.95266483970642,17.7663,5.95266483970642,18.1568,6.34319483970642C18.1568,6.34319483970642,18.1568,6.34319483970642,18.1568,6.34319483970642ZM8.25736,6.34319483970642C8.64788,6.733714839706421,8.64788,7.366884839706421,8.25736,7.757404839706421C7.13875,8.876014839706421,6.5,10.38619483970642,6.5,12.00004483970642C6.5,13.613904839706422,7.13875,15.124054839706421,8.25736,16.24265483970642C8.64788,16.63325483970642,8.64788,17.266354839706423,8.25736,17.656954839706422C7.86683,18.04745483970642,7.23367,18.04745483970642,6.84314,17.656954839706422C5.35318,16.16695483970642,4.5,14.149754839706421,4.5,12.00004483970642C4.5,9.85031483970642,5.35318,7.83315483970642,6.84314,6.34319483970642C7.23367,5.95266483970642,7.86683,5.95266483970642,8.25736,6.34319483970642C8.25736,6.34319483970642,8.25736,6.34319483970642,8.25736,6.34319483970642ZM14.0909,9.00000483970642C15.6848,9.00000483970642,17,10.240034839706421,17,11.800004839706421C17,12.863714839706422,16.4802,13.789544839706421,15.5971,14.728254839706421C15.4561,14.87815483970642,15.3103,15.02365483970642,15.144,15.182454839706422C15.144,15.182454839706422,14.5306,15.75075483970642,14.5306,15.75075483970642C14.1052,16.12135483970642,13.6058,16.48605483970642,13.0322,16.84665483970642C12.7069,17.05115483970642,12.2931,17.05115483970642,11.9678,16.84665483970642C11.27944,16.41395483970642,10.69797,15.975354839706421,10.22308,15.52755483970642C10.22308,15.52755483970642,9.69597,15.02745483970642,9.69597,15.02745483970642C9.59306,14.92615483970642,9.49692,14.828154839706421,9.40293,14.728254839706421C8.51985,13.789544839706421,8,12.863714839706422,8,11.800004839706421C8,10.240034839706421,9.315190000000001,9.00000483970642,10.9091,9.00000483970642C11.42738,9.00000483970642,11.9244,9.13185483970642,12.3572,9.370944839706421C12.3572,9.370944839706421,12.5,9.45500483970642,12.5,9.45500483970642C12.5,9.45500483970642,12.6428,9.370944839706421,12.6428,9.370944839706421C13.0215,9.16174483970642,13.4494,9.03463483970642,13.8976,9.006134839706421C13.8976,9.006134839706421,14.0909,9.00000483970642,14.0909,9.00000483970642C14.0909,9.00000483970642,14.0909,9.00000483970642,14.0909,9.00000483970642ZM14.0909,11.00000483970642C13.7683,11.00000483970642,13.4813,11.14832483970642,13.3172,11.38093483970642C13.3172,11.38093483970642,13.2376,11.48024483970642,13.2376,11.48024483970642C12.8159,11.943684839706421,12.0562,11.91057483970642,11.6828,11.38093483970642C11.6828,11.38093483970642,11.6156,11.29778483970642,11.6156,11.29778483970642C11.44641,11.11355483970642,11.19137,11.00000483970642,10.9091,11.00000483970642C10.39431,11.00000483970642,10,11.371774839706422,10,11.800004839706421C10,12.23340483970642,10.29343,12.755984839706421,10.85968,13.35792483970642C10.89763,13.39827483970642,10.93644,13.438644839706422,10.97658,13.479564839706422C10.97658,13.479564839706422,11.23744,13.736184839706421,11.23744,13.736184839706421C11.23744,13.736184839706421,11.7907,14.24925483970642,11.7907,14.24925483970642C11.9951,14.42685483970642,12.2259,14.60665483970642,12.4829,14.78815483970642C12.4829,14.78815483970642,12.499,14.799954839706421,12.499,14.799954839706421C12.499,14.799954839706421,12.7654,14.607254839706421,12.7654,14.607254839706421C12.9251,14.48705483970642,13.073,14.367654839706422,13.2093,14.24925483970642C13.2093,14.24925483970642,13.4049,14.07245483970642,13.4049,14.07245483970642C13.4049,14.07245483970642,13.6701,13.82368483970642,13.6701,13.82368483970642C13.6701,13.82368483970642,14.0234,13.479564839706422,14.0234,13.479564839706422C14.0234,13.479564839706422,14.1403,13.35792483970642,14.1403,13.35792483970642C14.7066,12.755984839706421,15,12.23340483970642,15,11.800004839706421C15,11.371774839706422,14.6057,11.00000483970642,14.0909,11.00000483970642C14.0909,11.00000483970642,14.0909,11.00000483970642,14.0909,11.00000483970642Z" fill="#000000" fill-opacity="0.8500000238418579"/></g><g style="mix-blend-mode:passthrough"><path d="M14.090900000000001,11C13.76831,11,13.48128,11.148321,13.31725,11.380937C13.31725,11.380937,13.23762,11.480244,13.23762,11.480244C12.81587,11.943681,12.05623,11.910579,11.68275,11.380937C11.68275,11.380937,11.61565,11.297782,11.61565,11.297782C11.44641,11.113558,11.19137,11,10.9091,11C10.394305,11,10,11.371771,10,11.8C10,12.23341,10.293425,12.755980000000001,10.859676,13.35793C10.897629,13.39827,10.936435,13.43864,10.976583,13.479569999999999C10.976583,13.479569999999999,11.23744,13.736180000000001,11.23744,13.736180000000001C11.23744,13.736180000000001,11.79071,14.24928,11.79071,14.24928C11.9951,14.42689,12.22585,14.60665,12.48293,14.78816C12.48293,14.78816,12.499,14.8,12.499,14.8C12.499,14.8,12.76537,14.60725,12.76537,14.60725C12.92505,14.48705,13.07303,14.36769,13.20928,14.24929C13.20928,14.24929,13.40488,14.072420000000001,13.40488,14.072420000000001C13.40488,14.072420000000001,13.67005,13.82369,13.67005,13.82369C13.67005,13.82369,14.02342,13.479569999999999,14.02342,13.479569999999999C14.02342,13.479569999999999,14.14032,13.35793,14.14032,13.35793C14.70657,12.755980000000001,15,12.23341,15,11.8C15,11.371771,14.605699999999999,11,14.090900000000001,11C14.090900000000001,11,14.090900000000001,11,14.090900000000001,11Z" fill="#91D5FF" fill-opacity="1"/></g></g></svg>